<svg id="Layer_1" data-name="Layer 1" xmlns="http://www.w3.org/2000/svg" viewBox="0 0 101 52"><defs><style>.cls-1,.cls-2,.cls-3{fill:none;}.cls-1,.cls-2,.cls-3,.cls-4,.cls-5{stroke:#e8983a;}.cls-1,.cls-4,.cls-5{stroke-miterlimit:10;}.cls-2,.cls-3{stroke-width:4px;}.cls-3{stroke-linecap:round;}.cls-4{fill:#e8983a;}.cls-5{fill:#d9723a;}</style></defs><g id="Group_5" data-name="Group 5"><g id="Rectangle_52" data-name="Rectangle 52"><rect class="cls-1" x="0.5" y="0.5" width="100" height="51" rx="20"/><rect class="cls-2" x="2.5" y="2.5" width="96" height="47" rx="18"/></g><line id="Line_27" data-name="Line 27" class="cls-3" x1="30.5" y1="26.18" x2="55.78" y2="26.18"/><g id="Polygon_1" data-name="Polygon 1"><path class="cls-4" d="M55.5,32.39V19.61a1.5,1.5,0,0,1,2.3-1.27L68,24.73a1.49,1.49,0,0,1,0,2.54L57.8,33.66a1.5,1.5,0,0,1-2.3-1.27Z" transform="translate(0.5 0.5)"/><path class="cls-5" d="M68.23,26a1,1,0,0,0-.47-.85L57.53,18.76a1,1,0,0,0-1.53.85V32.39a1,1,0,0,0,1.53.85l10.23-6.39a1,1,0,0,0,.47-.85m1,0a2,2,0,0,1-.94,1.7L58.06,34.09A2,2,0,0,1,55,32.39V19.61a2,2,0,0,1,3.06-1.7L68.29,24.3A2,2,0,0,1,69.23,26Z" transform="translate(0.5 0.5)"/></g></g></svg>