<?xml version="1.0" encoding="utf-8"?>
<!-- Generator: Adobe Illustrator 26.0.2, SVG Export Plug-In . SVG Version: 6.00 Build 0)  -->
<svg version="1.1" id="Layer_1" xmlns="http://www.w3.org/2000/svg" xmlns:xlink="http://www.w3.org/1999/xlink" x="0px" y="0px"
	 viewBox="0 0 100 51" style="enable-background:new 0 0 100 51;" xml:space="preserve">
<style type="text/css">
	.st0{fill:none;stroke:#E8983A;stroke-width:0.8827;stroke-miterlimit:10;}
	.st1{fill:none;stroke:#E8983A;stroke-width:3.5308;}
	.st2{fill:none;stroke:#E8983A;stroke-width:3.5308;stroke-linecap:round;}
	.st3{fill:#E8983A;stroke:#E8983A;stroke-width:0.8827;stroke-miterlimit:10;}
	.st4{fill:#D9723A;stroke:#E8983A;stroke-width:0.8827;stroke-miterlimit:10;}
</style>
<g id="Group_5" transform="translate(-669 -759)">
	<g id="Rectangle_52" transform="translate(669 759)">
		<path class="st0" d="M28.4,0h46.8c8.6,0,15.6,9,15.6,20v11c0,11-7,20-15.6,20H28.4c-8.6,0-15.6-9-15.6-20V20C12.9,9,19.8,0,28.4,0
			z"/>
		<path class="st1" d="M28.4,2h46.8c7.7,0,14,8.1,14,18v11c0,9.9-6.3,18-14,18H28.4c-7.7,0-14-8.1-14-18V20C14.4,10.1,20.7,2,28.4,2
			z"/>
	</g>
	<line id="Line_27" class="st2" x1="705.2" y1="784.7" x2="724.9" y2="784.7"/>
	<g id="Polygon_1" transform="translate(740 775) rotate(90)">
		<path class="st3" d="M16.4,14.9H3.6c-0.6,0-1-0.2-1.3-0.6c-0.3-0.4-0.3-0.8,0-1.2l6.4-8C9,4.8,9.5,4.6,10,4.6s1,0.2,1.3,0.5l6.4,8
			c0.3,0.4,0.3,0.8,0,1.2C17.4,14.7,16.9,14.9,16.4,14.9z"/>
		<path class="st4" d="M10,5C9.8,5,9.4,5,9.2,5.4l-6.4,8c-0.3,0.4-0.1,0.7,0,0.8c0.1,0.1,0.3,0.4,0.9,0.4h12.8
			c0.5,0,0.8-0.3,0.9-0.4c0.1-0.1,0.3-0.4,0-0.8l-6.4-8C10.6,5,10.2,5,10,5 M10,4.2c0.7,0,1.3,0.2,1.7,0.7l6.4,8
			c0.8,1-0.1,2.4-1.7,2.4H3.6c-1.6,0-2.5-1.3-1.7-2.4l6.4-8C8.7,4.4,9.3,4.2,10,4.2z"/>
	</g>
</g>
</svg>
