<svg xmlns="http://www.w3.org/2000/svg" width="40.355" height="40.361" viewBox="0 0 40.355 40.361">
  <g id="back_to_top_icon" data-name="back to top icon" transform="translate(-0.002 0.05)">
    <path id="Path_3" data-name="Path 3" d="M312.029,101.21a18.612,18.612,0,1,1-.214-2.885,18.861,18.861,0,0,1,.214,2.885.744.744,0,0,0,1.488,0,20.182,20.182,0,1,0-.258,3.218,21.326,21.326,0,0,0,.258-3.218A.744.744,0,0,0,312.029,101.21Z" transform="translate(-273.16 -81.08)" fill="#fff"/>
    <path id="Path_4" data-name="Path 4" d="M303.7,126.242l6.844-6.6.976-.944H310.47l6.436,6.6.924.952c.671.686,1.722-.369,1.051-1.055l-6.432-6.6-.928-.952a.758.758,0,0,0-1.051,0l-6.84,6.606-.972.944c-.69.667.361,1.718,1.051,1.055Z" transform="translate(-290.816 -103.041)" fill="#fff"/>
    <path id="Path_5" data-name="Path 5" d="M323.628,133.4v-15.18a.746.746,0,0,0-1.488,0V133.4a.746.746,0,0,0,1.488,0Z" transform="translate(-302.705 -103.096)" fill="#fff"/>
    <path id="Path_6" data-name="Path 6" d="M303.249,108.108h15.184a.746.746,0,0,0,0-1.488H303.249a.746.746,0,0,0,0,1.488Z" transform="translate(-290.892 -96.517)" fill="#fff"/>
  </g>
</svg>
